<svg xmlns="http://www.w3.org/2000/svg" xmlns:xlink="http://www.w3.org/1999/xlink" width="96" zoomAndPan="magnify" viewBox="0 0 72 72" height="96" preserveAspectRatio="xMidYMid meet" version="1.0"><rect x="-7.2" width="86.4" fill="#ffffff" y="-7.2" height="86.4" fill-opacity="1"/><rect x="-7.2" width="86.4" fill="#ffffff" y="-7.2" height="86.4" fill-opacity="1"/><rect x="-7.2" width="86.4" fill="#000000" y="-7.2" height="86.4" fill-opacity="1"/><path stroke-linecap="butt" transform="matrix(1.107692, 0, 0, 1.107692, 0, 0.000002)" fill-opacity="1" fill="#000000" fill-rule="nonzero" stroke-linejoin="miter" d="M 1.999512 2.50027 L 8.999566 2.50027 M 12.000597 2.50027 L 12.99859 2.50027 M 15.001628 2.50027 L 19.000652 2.50027 M 19.998645 2.50027 L 21.000164 2.50027 M 24.001195 2.50027 L 28.000218 2.50027 M 29.001737 2.50027 L 29.99973 2.50027 M 31.001249 2.50027 L 31.999242 2.50027 M 35.998266 2.50027 L 36.999785 2.50027 M 38.999296 2.50027 L 40.000816 2.50027 M 40.998808 2.50027 L 42.99832 2.50027 M 45.999351 2.50027 L 49.000382 2.50027 M 50.999894 2.50027 L 52.001413 2.50027 M 52.999406 2.50027 L 54.998917 2.50027 M 56.000437 2.50027 L 63.000491 2.50027 M 1.999512 3.498262 L 3.001031 3.498262 M 8.001574 3.498262 L 8.999566 3.498262 M 10.999078 3.498262 L 12.000597 3.498262 M 12.99859 3.498262 L 14.000109 3.498262 M 15.001628 3.498262 L 17.00114 3.498262 M 21.000164 3.498262 L 24.001195 3.498262 M 31.001249 3.498262 L 31.999242 3.498262 M 33.000761 3.498262 L 35.000273 3.498262 M 38.001304 3.498262 L 38.999296 3.498262 M 40.000816 3.498262 L 40.998808 3.498262 M 42.000327 3.498262 L 42.99832 3.498262 M 45.001358 3.498262 L 50.999894 3.498262 M 52.999406 3.498262 L 54.998917 3.498262 M 56.000437 3.498262 L 56.998429 3.498262 M 61.998972 3.498262 L 63.000491 3.498262 M 1.999512 4.499781 L 3.001031 4.499781 M 3.999024 4.499781 L 7.000055 4.499781 M 8.001574 4.499781 L 8.999566 4.499781 M 10.001086 4.499781 L 10.999078 4.499781 M 14.000109 4.499781 L 17.999133 4.499781 M 21.000164 4.499781 L 22.001683 4.499781 M 22.999676 4.499781 L 26.000706 4.499781 M 26.998699 4.499781 L 29.99973 4.499781 M 31.999242 4.499781 L 33.000761 4.499781 M 33.998754 4.499781 L 35.998266 4.499781 M 36.999785 4.499781 L 38.999296 4.499781 M 40.998808 4.499781 L 43.999839 4.499781 M 47.00087 4.499781 L 49.000382 4.499781 M 50.999894 4.499781 L 54.998917 4.499781 M 56.000437 4.499781 L 56.998429 4.499781 M 57.999948 4.499781 L 61.000979 4.499781 M 61.998972 4.499781 L 63.000491 4.499781 M 1.999512 5.501301 L 3.001031 5.501301 M 3.999024 5.501301 L 7.000055 5.501301 M 8.001574 5.501301 L 8.999566 5.501301 M 10.001086 5.501301 L 10.999078 5.501301 M 14.000109 5.501301 L 15.999621 5.501301 M 17.00114 5.501301 L 19.000652 5.501301 M 19.998645 5.501301 L 22.999676 5.501301 M 24.001195 5.501301 L 24.999187 5.501301 M 28.000218 5.501301 L 29.001737 5.501301 M 33.000761 5.501301 L 35.000273 5.501301 M 36.999785 5.501301 L 38.001304 5.501301 M 40.000816 5.501301 L 40.998808 5.501301 M 43.999839 5.501301 L 47.998863 5.501301 M 49.000382 5.501301 L 52.999406 5.501301 M 54.000925 5.501301 L 54.998917 5.501301 M 56.000437 5.501301 L 56.998429 5.501301 M 57.999948 5.501301 L 61.000979 5.501301 M 61.998972 5.501301 L 63.000491 5.501301 M 1.999512 6.499293 L 3.001031 6.499293 M 3.999024 6.499293 L 7.000055 6.499293 M 8.001574 6.499293 L 8.999566 6.499293 M 10.001086 6.499293 L 12.000597 6.499293 M 14.000109 6.499293 L 15.001628 6.499293 M 15.999621 6.499293 L 19.998645 6.499293 M 21.000164 6.499293 L 22.001683 6.499293 M 22.999676 6.499293 L 26.998699 6.499293 M 28.000218 6.499293 L 35.998266 6.499293 M 38.999296 6.499293 L 40.000816 6.499293 M 40.998808 6.499293 L 45.001358 6.499293 M 45.999351 6.499293 L 47.00087 6.499293 M 47.998863 6.499293 L 49.000382 6.499293 M 49.998375 6.499293 L 54.000925 6.499293 M 56.000437 6.499293 L 56.998429 6.499293 M 57.999948 6.499293 L 61.000979 6.499293 M 61.998972 6.499293 L 63.000491 6.499293 M 1.999512 7.500812 L 3.001031 7.500812 M 8.001574 7.500812 L 8.999566 7.500812 M 10.001086 7.500812 L 12.000597 7.500812 M 12.99859 7.500812 L 14.000109 7.500812 M 19.000652 7.500812 L 19.998645 7.500812 M 21.000164 7.500812 L 26.000706 7.500812 M 26.998699 7.500812 L 29.001737 7.500812 M 29.99973 7.500812 L 31.001249 7.500812 M 33.998754 7.500812 L 35.000273 7.500812 M 36.999785 7.500812 L 38.001304 7.500812 M 38.999296 7.500812 L 42.000327 7.500812 M 47.00087 7.500812 L 47.998863 7.500812 M 49.998375 7.500812 L 50.999894 7.500812 M 52.001413 7.500812 L 52.999406 7.500812 M 56.000437 7.500812 L 56.998429 7.500812 M 61.998972 7.500812 L 63.000491 7.500812 M 1.999512 8.498805 L 8.999566 8.498805 M 10.001086 8.498805 L 10.999078 8.498805 M 12.000597 8.498805 L 12.99859 8.498805 M 14.000109 8.498805 L 15.001628 8.498805 M 15.999621 8.498805 L 17.00114 8.498805 M 17.999133 8.498805 L 19.000652 8.498805 M 19.998645 8.498805 L 21.000164 8.498805 M 22.001683 8.498805 L 22.999676 8.498805 M 24.001195 8.498805 L 24.999187 8.498805 M 26.000706 8.498805 L 26.998699 8.498805 M 28.000218 8.498805 L 29.001737 8.498805 M 29.99973 8.498805 L 31.001249 8.498805 M 31.999242 8.498805 L 33.000761 8.498805 M 33.998754 8.498805 L 35.000273 8.498805 M 35.998266 8.498805 L 36.999785 8.498805 M 38.001304 8.498805 L 38.999296 8.498805 M 40.000816 8.498805 L 40.998808 8.498805 M 42.000327 8.498805 L 42.99832 8.498805 M 43.999839 8.498805 L 45.001358 8.498805 M 45.999351 8.498805 L 47.00087 8.498805 M 47.998863 8.498805 L 49.000382 8.498805 M 49.998375 8.498805 L 50.999894 8.498805 M 52.001413 8.498805 L 52.999406 8.498805 M 54.000925 8.498805 L 54.998917 8.498805 M 56.000437 8.498805 L 63.000491 8.498805 M 10.001086 9.500324 L 10.999078 9.500324 M 14.000109 9.500324 L 15.999621 9.500324 M 17.00114 9.500324 L 17.999133 9.500324 M 19.998645 9.500324 L 21.000164 9.500324 M 22.001683 9.500324 L 24.001195 9.500324 M 24.999187 9.500324 L 26.998699 9.500324 M 29.001737 9.500324 L 31.001249 9.500324 M 33.998754 9.500324 L 35.998266 9.500324 M 38.999296 9.500324 L 40.000816 9.500324 M 42.99832 9.500324 L 45.001358 9.500324 M 47.00087 9.500324 L 49.000382 9.500324 M 49.998375 9.500324 L 52.999406 9.500324 M 1.999512 10.498317 L 3.001031 10.498317 M 3.999024 10.498317 L 8.999566 10.498317 M 10.999078 10.498317 L 12.000597 10.498317 M 12.99859 10.498317 L 15.001628 10.498317 M 17.00114 10.498317 L 29.001737 10.498317 M 29.99973 10.498317 L 35.000273 10.498317 M 36.999785 10.498317 L 38.999296 10.498317 M 40.000816 10.498317 L 40.998808 10.498317 M 42.000327 10.498317 L 45.999351 10.498317 M 49.000382 10.498317 L 49.998375 10.498317 M 50.999894 10.498317 L 52.999406 10.498317 M 54.000925 10.498317 L 54.998917 10.498317 M 56.000437 10.498317 L 61.000979 10.498317 M 1.999512 11.499836 L 3.999024 11.499836 M 5.000543 11.499836 L 8.001574 11.499836 M 8.999566 11.499836 L 14.000109 11.499836 M 15.999621 11.499836 L 17.00114 11.499836 M 17.999133 11.499836 L 19.000652 11.499836 M 22.001683 11.499836 L 24.999187 11.499836 M 28.000218 11.499836 L 29.99973 11.499836 M 33.998754 11.499836 L 35.000273 11.499836 M 35.998266 11.499836 L 36.999785 11.499836 M 38.999296 11.499836 L 40.000816 11.499836 M 40.998808 11.499836 L 42.000327 11.499836 M 42.99832 11.499836 L 45.001358 11.499836 M 50.999894 11.499836 L 52.001413 11.499836 M 52.999406 11.499836 L 54.998917 11.499836 M 56.000437 11.499836 L 56.998429 11.499836 M 59.99946 11.499836 L 61.000979 11.499836 M 61.998972 11.499836 L 63.000491 11.499836 M 1.999512 12.501355 L 3.001031 12.501355 M 3.999024 12.501355 L 5.000543 12.501355 M 7.000055 12.501355 L 8.999566 12.501355 M 10.999078 12.501355 L 12.000597 12.501355 M 15.999621 12.501355 L 19.000652 12.501355 M 24.999187 12.501355 L 26.000706 12.501355 M 26.998699 12.501355 L 28.000218 12.501355 M 29.001737 12.501355 L 29.99973 12.501355 M 33.000761 12.501355 L 33.998754 12.501355 M 38.999296 12.501355 L 42.99832 12.501355 M 47.998863 12.501355 L 49.000382 12.501355 M 50.999894 12.501355 L 54.998917 12.501355 M 56.000437 12.501355 L 56.998429 12.501355 M 59.001467 12.501355 L 61.998972 12.501355 M 3.999024 13.499348 L 5.000543 13.499348 M 5.998535 13.499348 L 8.001574 13.499348 M 8.999566 13.499348 L 12.000597 13.499348 M 15.001628 13.499348 L 15.999621 13.499348 M 17.00114 13.499348 L 19.000652 13.499348 M 19.998645 13.499348 L 21.000164 13.499348 M 26.000706 13.499348 L 26.998699 13.499348 M 28.000218 13.499348 L 29.001737 13.499348 M 29.99973 13.499348 L 33.000761 13.499348 M 35.000273 13.499348 L 36.999785 13.499348 M 38.001304 13.499348 L 43.999839 13.499348 M 45.999351 13.499348 L 47.00087 13.499348 M 52.001413 13.499348 L 54.000925 13.499348 M 54.998917 13.499348 L 56.998429 13.499348 M 57.999948 13.499348 L 61.000979 13.499348 M 5.000543 14.500867 L 10.999078 14.500867 M 12.000597 14.500867 L 12.99859 14.500867 M 15.001628 14.500867 L 15.999621 14.500867 M 17.00114 14.500867 L 19.998645 14.500867 M 22.001683 14.500867 L 22.999676 14.500867 M 26.998699 14.500867 L 31.999242 14.500867 M 33.998754 14.500867 L 38.999296 14.500867 M 40.998808 14.500867 L 42.000327 14.500867 M 43.999839 14.500867 L 45.999351 14.500867 M 47.00087 14.500867 L 54.998917 14.500867 M 56.000437 14.500867 L 56.998429 14.500867 M 59.99946 14.500867 L 61.998972 14.500867 M 3.999024 15.49886 L 5.998535 15.49886 M 8.999566 15.49886 L 12.000597 15.49886 M 14.000109 15.49886 L 15.001628 15.49886 M 15.999621 15.49886 L 17.00114 15.49886 M 17.999133 15.49886 L 22.001683 15.49886 M 24.999187 15.49886 L 26.000706 15.49886 M 28.000218 15.49886 L 33.000761 15.49886 M 36.999785 15.49886 L 40.000816 15.49886 M 42.99832 15.49886 L 43.999839 15.49886 M 45.001358 15.49886 L 47.00087 15.49886 M 50.999894 15.49886 L 52.999406 15.49886 M 54.000925 15.49886 L 61.000979 15.49886 M 3.001031 16.500379 L 5.998535 16.500379 M 8.001574 16.500379 L 10.001086 16.500379 M 10.999078 16.500379 L 12.99859 16.500379 M 15.001628 16.500379 L 15.999621 16.500379 M 19.998645 16.500379 L 22.001683 16.500379 M 22.999676 16.500379 L 24.001195 16.500379 M 24.999187 16.500379 L 26.000706 16.500379 M 29.001737 16.500379 L 29.99973 16.500379 M 33.998754 16.500379 L 36.999785 16.500379 M 38.001304 16.500379 L 42.99832 16.500379 M 45.001358 16.500379 L 45.999351 16.500379 M 47.998863 16.500379 L 49.000382 16.500379 M 49.998375 16.500379 L 50.999894 16.500379 M 52.999406 16.500379 L 54.000925 16.500379 M 56.000437 16.500379 L 59.99946 16.500379 M 61.000979 16.500379 L 63.000491 16.500379 M 3.001031 17.498371 L 5.000543 17.498371 M 8.999566 17.498371 L 14.000109 17.498371 M 15.001628 17.498371 L 17.999133 17.498371 M 19.000652 17.498371 L 21.000164 17.498371 M 22.001683 17.498371 L 24.001195 17.498371 M 26.000706 17.498371 L 26.998699 17.498371 M 28.000218 17.498371 L 29.001737 17.498371 M 33.998754 17.498371 L 35.000273 17.498371 M 35.998266 17.498371 L 36.999785 17.498371 M 38.001304 17.498371 L 38.999296 17.498371 M 40.998808 17.498371 L 42.99832 17.498371 M 45.999351 17.498371 L 47.998863 17.498371 M 49.000382 17.498371 L 50.999894 17.498371 M 56.000437 17.498371 L 56.998429 17.498371 M 57.999948 17.498371 L 59.001467 17.498371 M 61.000979 17.498371 L 63.000491 17.498371 M 1.999512 18.499891 L 5.998535 18.499891 M 7.000055 18.499891 L 12.000597 18.499891 M 12.99859 18.499891 L 14.000109 18.499891 M 15.001628 18.499891 L 15.999621 18.499891 M 17.00114 18.499891 L 19.000652 18.499891 M 19.998645 18.499891 L 21.000164 18.499891 M 24.999187 18.499891 L 29.99973 18.499891 M 31.001249 18.499891 L 33.000761 18.499891 M 35.000273 18.499891 L 35.998266 18.499891 M 36.999785 18.499891 L 38.001304 18.499891 M 40.998808 18.499891 L 42.99832 18.499891 M 43.999839 18.499891 L 45.001358 18.499891 M 45.999351 18.499891 L 47.998863 18.499891 M 49.000382 18.499891 L 49.998375 18.499891 M 56.000437 18.499891 L 56.998429 18.499891 M 57.999948 18.499891 L 59.001467 18.499891 M 59.99946 18.499891 L 61.000979 18.499891 M 61.998972 18.499891 L 63.000491 18.499891 M 3.001031 19.50141 L 5.000543 19.50141 M 7.000055 19.50141 L 8.001574 19.50141 M 8.999566 19.50141 L 10.001086 19.50141 M 12.99859 19.50141 L 15.999621 19.50141 M 17.00114 19.50141 L 19.000652 19.50141 M 21.000164 19.50141 L 22.001683 19.50141 M 24.001195 19.50141 L 29.001737 19.50141 M 31.001249 19.50141 L 33.000761 19.50141 M 33.998754 19.50141 L 35.000273 19.50141 M 38.999296 19.50141 L 40.000816 19.50141 M 40.998808 19.50141 L 45.001358 19.50141 M 50.999894 19.50141 L 52.999406 19.50141 M 54.998917 19.50141 L 56.000437 19.50141 M 57.999948 19.50141 L 59.001467 19.50141 M 61.000979 19.50141 L 61.998972 19.50141 M 3.001031 20.499402 L 5.998535 20.499402 M 8.001574 20.499402 L 8.999566 20.499402 M 12.000597 20.499402 L 14.000109 20.499402 M 15.001628 20.499402 L 17.00114 20.499402 M 17.999133 20.499402 L 19.000652 20.499402 M 21.000164 20.499402 L 22.999676 20.499402 M 24.999187 20.499402 L 26.000706 20.499402 M 26.998699 20.499402 L 31.001249 20.499402 M 31.999242 20.499402 L 35.000273 20.499402 M 35.998266 20.499402 L 38.001304 20.499402 M 40.000816 20.499402 L 42.000327 20.499402 M 42.99832 20.499402 L 43.999839 20.499402 M 45.001358 20.499402 L 47.998863 20.499402 M 50.999894 20.499402 L 52.001413 20.499402 M 54.000925 20.499402 L 57.999948 20.499402 M 61.000979 20.499402 L 63.000491 20.499402 M 3.001031 21.500921 L 5.000543 21.500921 M 5.998535 21.500921 L 7.000055 21.500921 M 10.001086 21.500921 L 12.000597 21.500921 M 15.999621 21.500921 L 17.00114 21.500921 M 19.000652 21.500921 L 21.000164 21.500921 M 22.001683 21.500921 L 24.001195 21.500921 M 24.999187 21.500921 L 26.000706 21.500921 M 28.000218 21.500921 L 31.999242 21.500921 M 33.998754 21.500921 L 35.998266 21.500921 M 38.001304 21.500921 L 40.000816 21.500921 M 40.998808 21.500921 L 43.999839 21.500921 M 45.001358 21.500921 L 45.999351 21.500921 M 54.000925 21.500921 L 54.998917 21.500921 M 56.000437 21.500921 L 56.998429 21.500921 M 57.999948 21.500921 L 59.001467 21.500921 M 61.000979 21.500921 L 61.998972 21.500921 M 5.000543 22.498914 L 5.998535 22.498914 M 8.001574 22.498914 L 10.001086 22.498914 M 10.999078 22.498914 L 12.000597 22.498914 M 12.99859 22.498914 L 15.999621 22.498914 M 17.00114 22.498914 L 17.999133 22.498914 M 19.000652 22.498914 L 19.998645 22.498914 M 21.000164 22.498914 L 22.001683 22.498914 M 22.999676 22.498914 L 24.001195 22.498914 M 24.999187 22.498914 L 26.000706 22.498914 M 26.998699 22.498914 L 29.001737 22.498914 M 33.000761 22.498914 L 33.998754 22.498914 M 35.000273 22.498914 L 36.999785 22.498914 M 42.000327 22.498914 L 42.99832 22.498914 M 43.999839 22.498914 L 45.999351 22.498914 M 47.00087 22.498914 L 49.000382 22.498914 M 52.001413 22.498914 L 52.999406 22.498914 M 54.000925 22.498914 L 54.998917 22.498914 M 56.000437 22.498914 L 56.998429 22.498914 M 57.999948 22.498914 L 59.001467 22.498914 M 59.99946 22.498914 L 61.998972 22.498914 M 1.999512 23.500433 L 5.000543 23.500433 M 7.000055 23.500433 L 8.001574 23.500433 M 8.999566 23.500433 L 12.99859 23.500433 M 14.000109 23.500433 L 15.001628 23.500433 M 17.999133 23.500433 L 19.000652 23.500433 M 21.000164 23.500433 L 24.001195 23.500433 M 24.999187 23.500433 L 26.000706 23.500433 M 29.001737 23.500433 L 31.001249 23.500433 M 31.999242 23.500433 L 33.000761 23.500433 M 33.998754 23.500433 L 36.999785 23.500433 M 38.001304 23.500433 L 42.99832 23.500433 M 47.998863 23.500433 L 49.000382 23.500433 M 50.999894 23.500433 L 54.000925 23.500433 M 54.998917 23.500433 L 56.000437 23.500433 M 57.999948 23.500433 L 61.000979 23.500433 M 61.998972 23.500433 L 63.000491 23.500433 M 3.001031 24.498426 L 5.998535 24.498426 M 8.001574 24.498426 L 10.001086 24.498426 M 17.00114 24.498426 L 17.999133 24.498426 M 19.000652 24.498426 L 19.998645 24.498426 M 21.000164 24.498426 L 22.001683 24.498426 M 24.001195 24.498426 L 24.999187 24.498426 M 26.000706 24.498426 L 29.99973 24.498426 M 31.001249 24.498426 L 33.000761 24.498426 M 35.000273 24.498426 L 35.998266 24.498426 M 36.999785 24.498426 L 38.001304 24.498426 M 40.998808 24.498426 L 42.000327 24.498426 M 45.001358 24.498426 L 50.999894 24.498426 M 61.000979 24.498426 L 61.998972 24.498426 M 1.999512 25.499945 L 3.001031 25.499945 M 3.999024 25.499945 L 5.998535 25.499945 M 10.001086 25.499945 L 12.000597 25.499945 M 12.99859 25.499945 L 14.000109 25.499945 M 17.00114 25.499945 L 17.999133 25.499945 M 19.000652 25.499945 L 21.000164 25.499945 M 24.001195 25.499945 L 26.998699 25.499945 M 29.99973 25.499945 L 31.001249 25.499945 M 31.999242 25.499945 L 33.000761 25.499945 M 35.998266 25.499945 L 36.999785 25.499945 M 38.001304 25.499945 L 38.999296 25.499945 M 40.000816 25.499945 L 43.999839 25.499945 M 45.001358 25.499945 L 45.999351 25.499945 M 52.999406 25.499945 L 56.000437 25.499945 M 57.999948 25.499945 L 59.001467 25.499945 M 61.998972 25.499945 L 63.000491 25.499945 M 1.999512 26.501464 L 3.001031 26.501464 M 3.999024 26.501464 L 5.000543 26.501464 M 5.998535 26.501464 L 8.999566 26.501464 M 10.001086 26.501464 L 10.999078 26.501464 M 12.99859 26.501464 L 15.001628 26.501464 M 15.999621 26.501464 L 17.00114 26.501464 M 17.999133 26.501464 L 19.000652 26.501464 M 19.998645 26.501464 L 21.000164 26.501464 M 24.001195 26.501464 L 24.999187 26.501464 M 26.000706 26.501464 L 26.998699 26.501464 M 29.001737 26.501464 L 38.001304 26.501464 M 40.000816 26.501464 L 40.998808 26.501464 M 45.001358 26.501464 L 47.998863 26.501464 M 49.000382 26.501464 L 50.999894 26.501464 M 52.999406 26.501464 L 54.000925 26.501464 M 54.998917 26.501464 L 56.000437 26.501464 M 56.998429 26.501464 L 57.999948 26.501464 M 59.001467 26.501464 L 59.99946 26.501464 M 61.998972 26.501464 L 63.000491 26.501464 M 3.001031 27.499457 L 5.000543 27.499457 M 5.998535 27.499457 L 7.000055 27.499457 M 8.999566 27.499457 L 10.999078 27.499457 M 15.999621 27.499457 L 19.000652 27.499457 M 19.998645 27.499457 L 22.001683 27.499457 M 24.999187 27.499457 L 26.000706 27.499457 M 29.99973 27.499457 L 31.001249 27.499457 M 33.000761 27.499457 L 33.998754 27.499457 M 35.998266 27.499457 L 36.999785 27.499457 M 38.999296 27.499457 L 40.000816 27.499457 M 40.998808 27.499457 L 42.000327 27.499457 M 45.999351 27.499457 L 49.000382 27.499457 M 50.999894 27.499457 L 52.001413 27.499457 M 52.999406 27.499457 L 56.998429 27.499457 M 59.001467 27.499457 L 61.000979 27.499457 M 1.999512 28.500976 L 3.001031 28.500976 M 3.999024 28.500976 L 5.000543 28.500976 M 7.000055 28.500976 L 8.999566 28.500976 M 10.001086 28.500976 L 12.000597 28.500976 M 12.99859 28.500976 L 15.001628 28.500976 M 17.00114 28.500976 L 21.000164 28.500976 M 22.999676 28.500976 L 24.001195 28.500976 M 28.000218 28.500976 L 31.001249 28.500976 M 31.999242 28.500976 L 33.000761 28.500976 M 35.000273 28.500976 L 35.998266 28.500976 M 38.001304 28.500976 L 42.000327 28.500976 M 45.001358 28.500976 L 47.998863 28.500976 M 50.999894 28.500976 L 54.000925 28.500976 M 54.998917 28.500976 L 56.000437 28.500976 M 59.001467 28.500976 L 59.99946 28.500976 M 61.000979 28.500976 L 63.000491 28.500976 M 1.999512 29.498969 L 3.001031 29.498969 M 3.999024 29.498969 L 5.000543 29.498969 M 5.998535 29.498969 L 7.000055 29.498969 M 8.999566 29.498969 L 10.999078 29.498969 M 12.000597 29.498969 L 19.998645 29.498969 M 21.000164 29.498969 L 26.000706 29.498969 M 28.000218 29.498969 L 29.001737 29.498969 M 29.99973 29.498969 L 31.999242 29.498969 M 33.000761 29.498969 L 33.998754 29.498969 M 35.000273 29.498969 L 38.001304 29.498969 M 40.998808 29.498969 L 42.99832 29.498969 M 43.999839 29.498969 L 45.001358 29.498969 M 45.999351 29.498969 L 47.998863 29.498969 M 49.000382 29.498969 L 50.999894 29.498969 M 52.999406 29.498969 L 54.998917 29.498969 M 56.000437 29.498969 L 56.998429 29.498969 M 57.999948 29.498969 L 59.001467 29.498969 M 59.99946 29.498969 L 61.000979 29.498969 M 61.998972 29.498969 L 63.000491 29.498969 M 1.999512 30.500488 L 3.001031 30.500488 M 3.999024 30.500488 L 5.000543 30.500488 M 5.998535 30.500488 L 10.999078 30.500488 M 12.000597 30.500488 L 14.000109 30.500488 M 15.001628 30.500488 L 15.999621 30.500488 M 17.00114 30.500488 L 17.999133 30.500488 M 22.001683 30.500488 L 22.999676 30.500488 M 24.001195 30.500488 L 26.000706 30.500488 M 26.998699 30.500488 L 38.999296 30.500488 M 42.000327 30.500488 L 43.999839 30.500488 M 45.001358 30.500488 L 45.999351 30.500488 M 47.998863 30.500488 L 49.998375 30.500488 M 52.999406 30.500488 L 59.99946 30.500488 M 61.998972 30.500488 L 63.000491 30.500488 M 1.999512 31.498481 L 3.001031 31.498481 M 3.999024 31.498481 L 5.000543 31.498481 M 5.998535 31.498481 L 7.000055 31.498481 M 10.001086 31.498481 L 10.999078 31.498481 M 12.000597 31.498481 L 12.99859 31.498481 M 14.000109 31.498481 L 15.001628 31.498481 M 17.00114 31.498481 L 17.999133 31.498481 M 19.000652 31.498481 L 22.001683 31.498481 M 22.999676 31.498481 L 24.999187 31.498481 M 28.000218 31.498481 L 31.001249 31.498481 M 33.998754 31.498481 L 35.998266 31.498481 M 38.999296 31.498481 L 40.000816 31.498481 M 40.998808 31.498481 L 42.000327 31.498481 M 42.99832 31.498481 L 45.001358 31.498481 M 49.998375 31.498481 L 52.001413 31.498481 M 52.999406 31.498481 L 54.998917 31.498481 M 57.999948 31.498481 L 59.99946 31.498481 M 61.000979 31.498481 L 63.000491 31.498481 M 3.001031 32.5 L 3.999024 32.5 M 5.000543 32.5 L 7.000055 32.5 M 8.001574 32.5 L 8.999566 32.5 M 10.001086 32.5 L 10.999078 32.5 M 12.000597 32.5 L 14.000109 32.5 M 17.999133 32.5 L 19.000652 32.5 M 19.998645 32.5 L 22.001683 32.5 M 22.999676 32.5 L 24.999187 32.5 M 26.000706 32.5 L 26.998699 32.5 M 28.000218 32.5 L 29.001737 32.5 M 29.99973 32.5 L 31.001249 32.5 M 31.999242 32.5 L 33.000761 32.5 M 33.998754 32.5 L 35.000273 32.5 M 35.998266 32.5 L 36.999785 32.5 M 40.000816 32.5 L 40.998808 32.5 M 42.000327 32.5 L 42.99832 32.5 M 43.999839 32.5 L 45.999351 32.5 M 47.998863 32.5 L 49.998375 32.5 M 52.001413 32.5 L 54.998917 32.5 M 56.000437 32.5 L 56.998429 32.5 M 57.999948 32.5 L 59.99946 32.5 M 61.000979 32.5 L 61.998972 32.5 M 3.001031 33.501519 L 3.999024 33.501519 M 5.000543 33.501519 L 7.000055 33.501519 M 10.001086 33.501519 L 12.000597 33.501519 M 15.001628 33.501519 L 15.999621 33.501519 M 17.00114 33.501519 L 19.000652 33.501519 M 19.998645 33.501519 L 21.000164 33.501519 M 22.001683 33.501519 L 24.999187 33.501519 M 26.000706 33.501519 L 26.998699 33.501519 M 28.000218 33.501519 L 31.001249 33.501519 M 33.998754 33.501519 L 35.998266 33.501519 M 36.999785 33.501519 L 38.999296 33.501519 M 40.000816 33.501519 L 42.99832 33.501519 M 45.999351 33.501519 L 49.998375 33.501519 M 52.001413 33.501519 L 52.999406 33.501519 M 54.000925 33.501519 L 54.998917 33.501519 M 57.999948 33.501519 L 59.001467 33.501519 M 3.001031 34.499511 L 3.999024 34.499511 M 5.998535 34.499511 L 10.999078 34.499511 M 12.99859 34.499511 L 15.999621 34.499511 M 17.00114 34.499511 L 17.999133 34.499511 M 19.998645 34.499511 L 21.000164 34.499511 M 22.001683 34.499511 L 22.999676 34.499511 M 24.999187 34.499511 L 26.000706 34.499511 M 26.998699 34.499511 L 28.000218 34.499511 M 29.001737 34.499511 L 35.998266 34.499511 M 36.999785 34.499511 L 38.999296 34.499511 M 40.000816 34.499511 L 40.998808 34.499511 M 43.999839 34.499511 L 45.999351 34.499511 M 47.00087 34.499511 L 50.999894 34.499511 M 52.999406 34.499511 L 61.000979 34.499511 M 1.999512 35.501031 L 5.998535 35.501031 M 7.000055 35.501031 L 8.001574 35.501031 M 12.000597 35.501031 L 12.99859 35.501031 M 14.000109 35.501031 L 19.000652 35.501031 M 22.999676 35.501031 L 24.001195 35.501031 M 28.000218 35.501031 L 29.001737 35.501031 M 38.001304 35.501031 L 40.000816 35.501031 M 40.998808 35.501031 L 43.999839 35.501031 M 45.999351 35.501031 L 47.00087 35.501031 M 49.000382 35.501031 L 49.998375 35.501031 M 52.999406 35.501031 L 56.000437 35.501031 M 56.998429 35.501031 L 57.999948 35.501031 M 59.001467 35.501031 L 59.99946 35.501031 M 1.999512 36.499023 L 3.999024 36.499023 M 5.998535 36.499023 L 7.000055 36.499023 M 8.001574 36.499023 L 8.999566 36.499023 M 10.001086 36.499023 L 10.999078 36.499023 M 12.000597 36.499023 L 12.99859 36.499023 M 14.000109 36.499023 L 15.001628 36.499023 M 17.999133 36.499023 L 19.998645 36.499023 M 21.000164 36.499023 L 22.001683 36.499023 M 22.999676 36.499023 L 24.999187 36.499023 M 26.998699 36.499023 L 28.000218 36.499023 M 35.000273 36.499023 L 36.999785 36.499023 M 38.001304 36.499023 L 38.999296 36.499023 M 40.998808 36.499023 L 42.000327 36.499023 M 45.999351 36.499023 L 47.00087 36.499023 M 47.998863 36.499023 L 49.000382 36.499023 M 49.998375 36.499023 L 50.999894 36.499023 M 56.000437 36.499023 L 57.999948 36.499023 M 59.001467 36.499023 L 61.998972 36.499023 M 1.999512 37.500542 L 5.998535 37.500542 M 8.999566 37.500542 L 10.001086 37.500542 M 10.999078 37.500542 L 12.000597 37.500542 M 15.001628 37.500542 L 17.00114 37.500542 M 17.999133 37.500542 L 19.998645 37.500542 M 22.001683 37.500542 L 22.999676 37.500542 M 24.999187 37.500542 L 26.000706 37.500542 M 29.001737 37.500542 L 29.99973 37.500542 M 33.998754 37.500542 L 40.000816 37.500542 M 40.998808 37.500542 L 42.99832 37.500542 M 45.999351 37.500542 L 47.00087 37.500542 M 47.998863 37.500542 L 49.000382 37.500542 M 50.999894 37.500542 L 52.999406 37.500542 M 54.000925 37.500542 L 54.998917 37.500542 M 56.998429 37.500542 L 61.998972 37.500542 M 1.999512 38.498535 L 3.001031 38.498535 M 3.999024 38.498535 L 5.000543 38.498535 M 7.000055 38.498535 L 8.999566 38.498535 M 10.999078 38.498535 L 12.000597 38.498535 M 12.99859 38.498535 L 15.001628 38.498535 M 15.999621 38.498535 L 19.000652 38.498535 M 21.000164 38.498535 L 24.999187 38.498535 M 26.000706 38.498535 L 29.99973 38.498535 M 33.998754 38.498535 L 36.999785 38.498535 M 38.001304 38.498535 L 38.999296 38.498535 M 40.998808 38.498535 L 42.99832 38.498535 M 45.001358 38.498535 L 45.999351 38.498535 M 47.00087 38.498535 L 47.998863 38.498535 M 52.001413 38.498535 L 52.999406 38.498535 M 54.998917 38.498535 L 56.000437 38.498535 M 57.999948 38.498535 L 59.001467 38.498535 M 61.000979 38.498535 L 63.000491 38.498535 M 1.999512 39.500054 L 3.999024 39.500054 M 5.000543 39.500054 L 7.000055 39.500054 M 8.999566 39.500054 L 10.001086 39.500054 M 12.99859 39.500054 L 14.000109 39.500054 M 15.001628 39.500054 L 17.00114 39.500054 M 19.998645 39.500054 L 26.998699 39.500054 M 31.001249 39.500054 L 33.000761 39.500054 M 35.000273 39.500054 L 40.000816 39.500054 M 40.998808 39.500054 L 45.001358 39.500054 M 47.998863 39.500054 L 49.000382 39.500054 M 49.998375 39.500054 L 52.999406 39.500054 M 56.000437 39.500054 L 56.998429 39.500054 M 59.001467 39.500054 L 59.99946 39.500054 M 61.000979 39.500054 L 63.000491 39.500054 M 3.001031 40.501573 L 5.998535 40.501573 M 7.000055 40.501573 L 8.999566 40.501573 M 10.001086 40.501573 L 10.999078 40.501573 M 12.000597 40.501573 L 12.99859 40.501573 M 15.001628 40.501573 L 19.000652 40.501573 M 31.999242 40.501573 L 33.000761 40.501573 M 33.998754 40.501573 L 35.000273 40.501573 M 38.001304 40.501573 L 38.999296 40.501573 M 40.998808 40.501573 L 42.000327 40.501573 M 45.999351 40.501573 L 47.00087 40.501573 M 49.998375 40.501573 L 50.999894 40.501573 M 52.001413 40.501573 L 52.999406 40.501573 M 54.000925 40.501573 L 56.000437 40.501573 M 57.999948 40.501573 L 59.99946 40.501573 M 61.998972 40.501573 L 63.000491 40.501573 M 5.000543 41.499566 L 7.000055 41.499566 M 8.999566 41.499566 L 10.001086 41.499566 M 12.000597 41.499566 L 14.000109 41.499566 M 15.999621 41.499566 L 17.999133 41.499566 M 21.000164 41.499566 L 22.001683 41.499566 M 24.001195 41.499566 L 24.999187 41.499566 M 26.998699 41.499566 L 28.000218 41.499566 M 29.001737 41.499566 L 31.001249 41.499566 M 33.998754 41.499566 L 35.998266 41.499566 M 36.999785 41.499566 L 40.000816 41.499566 M 42.000327 41.499566 L 43.999839 41.499566 M 45.999351 41.499566 L 47.00087 41.499566 M 47.998863 41.499566 L 49.000382 41.499566 M 50.999894 41.499566 L 52.999406 41.499566 M 57.999948 41.499566 L 59.001467 41.499566 M 61.998972 41.499566 L 63.000491 41.499566 M 1.999512 42.501085 L 5.000543 42.501085 M 8.001574 42.501085 L 8.999566 42.501085 M 10.001086 42.501085 L 12.000597 42.501085 M 12.99859 42.501085 L 17.999133 42.501085 M 21.000164 42.501085 L 22.001683 42.501085 M 22.999676 42.501085 L 26.998699 42.501085 M 33.998754 42.501085 L 36.999785 42.501085 M 40.000816 42.501085 L 40.998808 42.501085 M 43.999839 42.501085 L 45.001358 42.501085 M 45.999351 42.501085 L 50.999894 42.501085 M 54.000925 42.501085 L 54.998917 42.501085 M 57.999948 42.501085 L 61.000979 42.501085 M 61.998972 42.501085 L 63.000491 42.501085 M 5.000543 43.499078 L 7.000055 43.499078 M 8.999566 43.499078 L 12.000597 43.499078 M 15.999621 43.499078 L 17.00114 43.499078 M 19.000652 43.499078 L 21.000164 43.499078 M 22.001683 43.499078 L 24.001195 43.499078 M 26.000706 43.499078 L 28.000218 43.499078 M 29.99973 43.499078 L 31.001249 43.499078 M 31.999242 43.499078 L 33.000761 43.499078 M 33.998754 43.499078 L 35.000273 43.499078 M 38.001304 43.499078 L 38.999296 43.499078 M 40.000816 43.499078 L 45.001358 43.499078 M 45.999351 43.499078 L 49.000382 43.499078 M 49.998375 43.499078 L 50.999894 43.499078 M 52.001413 43.499078 L 52.999406 43.499078 M 56.000437 43.499078 L 56.998429 43.499078 M 57.999948 43.499078 L 59.001467 43.499078 M 61.000979 43.499078 L 63.000491 43.499078 M 1.999512 44.500597 L 3.001031 44.500597 M 5.998535 44.500597 L 10.001086 44.500597 M 12.000597 44.500597 L 12.99859 44.500597 M 15.001628 44.500597 L 19.000652 44.500597 M 21.000164 44.500597 L 22.999676 44.500597 M 24.999187 44.500597 L 26.998699 44.500597 M 31.001249 44.500597 L 33.000761 44.500597 M 35.000273 44.500597 L 40.000816 44.500597 M 40.998808 44.500597 L 42.000327 44.500597 M 42.99832 44.500597 L 45.001358 44.500597 M 47.00087 44.500597 L 49.000382 44.500597 M 54.000925 44.500597 L 54.998917 44.500597 M 59.001467 44.500597 L 61.998972 44.500597 M 7.000055 45.49859 L 8.001574 45.49859 M 10.001086 45.49859 L 14.000109 45.49859 M 15.001628 45.49859 L 17.999133 45.49859 M 21.000164 45.49859 L 22.001683 45.49859 M 26.000706 45.49859 L 26.998699 45.49859 M 29.99973 45.49859 L 31.001249 45.49859 M 33.000761 45.49859 L 35.998266 45.49859 M 36.999785 45.49859 L 38.999296 45.49859 M 40.000816 45.49859 L 45.001358 45.49859 M 47.00087 45.49859 L 49.998375 45.49859 M 54.000925 45.49859 L 54.998917 45.49859 M 56.998429 45.49859 L 57.999948 45.49859 M 59.001467 45.49859 L 61.000979 45.49859 M 61.998972 45.49859 L 63.000491 45.49859 M 3.999024 46.500109 L 8.999566 46.500109 M 10.999078 46.500109 L 15.001628 46.500109 M 17.00114 46.500109 L 17.999133 46.500109 M 19.000652 46.500109 L 21.000164 46.500109 M 24.999187 46.500109 L 26.998699 46.500109 M 28.000218 46.500109 L 29.001737 46.500109 M 29.99973 46.500109 L 33.000761 46.500109 M 36.999785 46.500109 L 38.001304 46.500109 M 40.000816 46.500109 L 40.998808 46.500109 M 45.001358 46.500109 L 47.998863 46.500109 M 49.000382 46.500109 L 50.999894 46.500109 M 52.999406 46.500109 L 57.999948 46.500109 M 59.001467 46.500109 L 63.000491 46.500109 M 5.998535 47.501628 L 8.001574 47.501628 M 10.999078 47.501628 L 12.000597 47.501628 M 12.99859 47.501628 L 15.001628 47.501628 M 15.999621 47.501628 L 17.00114 47.501628 M 17.999133 47.501628 L 19.998645 47.501628 M 21.000164 47.501628 L 22.001683 47.501628 M 22.999676 47.501628 L 24.001195 47.501628 M 29.001737 47.501628 L 29.99973 47.501628 M 33.000761 47.501628 L 35.998266 47.501628 M 40.998808 47.501628 L 42.000327 47.501628 M 42.99832 47.501628 L 43.999839 47.501628 M 47.998863 47.501628 L 49.000382 47.501628 M 52.001413 47.501628 L 54.000925 47.501628 M 57.999948 47.501628 L 61.000979 47.501628 M 3.001031 48.499621 L 3.999024 48.499621 M 5.000543 48.499621 L 7.000055 48.499621 M 8.001574 48.499621 L 10.001086 48.499621 M 15.999621 48.499621 L 17.00114 48.499621 M 19.000652 48.499621 L 22.001683 48.499621 M 22.999676 48.499621 L 24.999187 48.499621 M 26.000706 48.499621 L 28.000218 48.499621 M 29.001737 48.499621 L 31.999242 48.499621 M 33.998754 48.499621 L 35.000273 48.499621 M 36.999785 48.499621 L 38.999296 48.499621 M 40.998808 48.499621 L 42.000327 48.499621 M 45.001358 48.499621 L 45.999351 48.499621 M 47.00087 48.499621 L 49.000382 48.499621 M 52.001413 48.499621 L 54.000925 48.499621 M 57.999948 48.499621 L 63.000491 48.499621 M 3.001031 49.50114 L 5.000543 49.50114 M 7.000055 49.50114 L 8.001574 49.50114 M 12.000597 49.50114 L 15.001628 49.50114 M 15.999621 49.50114 L 19.000652 49.50114 M 21.000164 49.50114 L 22.001683 49.50114 M 22.999676 49.50114 L 24.999187 49.50114 M 29.001737 49.50114 L 29.99973 49.50114 M 33.000761 49.50114 L 33.998754 49.50114 M 36.999785 49.50114 L 42.000327 49.50114 M 43.999839 49.50114 L 45.001358 49.50114 M 45.999351 49.50114 L 47.00087 49.50114 M 49.998375 49.50114 L 50.999894 49.50114 M 52.999406 49.50114 L 54.998917 49.50114 M 56.998429 49.50114 L 57.999948 49.50114 M 61.998972 49.50114 L 63.000491 49.50114 M 8.001574 50.499132 L 10.001086 50.499132 M 10.999078 50.499132 L 12.000597 50.499132 M 12.99859 50.499132 L 15.999621 50.499132 M 17.00114 50.499132 L 17.999133 50.499132 M 19.000652 50.499132 L 19.998645 50.499132 M 21.000164 50.499132 L 22.001683 50.499132 M 26.000706 50.499132 L 29.99973 50.499132 M 31.001249 50.499132 L 31.999242 50.499132 M 33.000761 50.499132 L 35.000273 50.499132 M 36.999785 50.499132 L 38.001304 50.499132 M 40.000816 50.499132 L 40.998808 50.499132 M 43.999839 50.499132 L 45.999351 50.499132 M 47.00087 50.499132 L 47.998863 50.499132 M 49.000382 50.499132 L 52.001413 50.499132 M 56.000437 50.499132 L 56.998429 50.499132 M 57.999948 50.499132 L 59.001467 50.499132 M 59.99946 50.499132 L 61.000979 50.499132 M 61.998972 50.499132 L 63.000491 50.499132 M 3.001031 51.500652 L 3.999024 51.500652 M 5.000543 51.500652 L 7.000055 51.500652 M 8.999566 51.500652 L 10.999078 51.500652 M 14.000109 51.500652 L 15.999621 51.500652 M 17.999133 51.500652 L 19.998645 51.500652 M 22.001683 51.500652 L 24.001195 51.500652 M 26.998699 51.500652 L 28.000218 51.500652 M 29.001737 51.500652 L 29.99973 51.500652 M 31.999242 51.500652 L 33.000761 51.500652 M 33.998754 51.500652 L 35.998266 51.500652 M 40.998808 51.500652 L 45.001358 51.500652 M 54.000925 51.500652 L 54.998917 51.500652 M 56.000437 51.500652 L 57.999948 51.500652 M 59.99946 51.500652 L 63.000491 51.500652 M 3.999024 52.498644 L 10.001086 52.498644 M 10.999078 52.498644 L 12.000597 52.498644 M 15.001628 52.498644 L 17.00114 52.498644 M 19.000652 52.498644 L 19.998645 52.498644 M 22.001683 52.498644 L 24.001195 52.498644 M 35.000273 52.498644 L 36.999785 52.498644 M 38.001304 52.498644 L 43.999839 52.498644 M 45.001358 52.498644 L 45.999351 52.498644 M 47.00087 52.498644 L 49.000382 52.498644 M 49.998375 52.498644 L 54.000925 52.498644 M 54.998917 52.498644 L 56.998429 52.498644 M 57.999948 52.498644 L 61.998972 52.498644 M 1.999512 53.500163 L 5.000543 53.500163 M 5.998535 53.500163 L 7.000055 53.500163 M 8.999566 53.500163 L 12.000597 53.500163 M 14.000109 53.500163 L 21.000164 53.500163 M 24.001195 53.500163 L 24.999187 53.500163 M 26.000706 53.500163 L 26.998699 53.500163 M 28.000218 53.500163 L 31.001249 53.500163 M 33.000761 53.500163 L 35.998266 53.500163 M 38.999296 53.500163 L 45.001358 53.500163 M 45.999351 53.500163 L 47.998863 53.500163 M 49.000382 53.500163 L 49.998375 53.500163 M 54.000925 53.500163 L 54.998917 53.500163 M 57.999948 53.500163 L 59.001467 53.500163 M 61.998972 53.500163 L 63.000491 53.500163 M 1.999512 54.501683 L 5.998535 54.501683 M 8.001574 54.501683 L 10.001086 54.501683 M 10.999078 54.501683 L 15.001628 54.501683 M 21.000164 54.501683 L 22.999676 54.501683 M 24.999187 54.501683 L 26.000706 54.501683 M 28.000218 54.501683 L 29.001737 54.501683 M 29.99973 54.501683 L 35.998266 54.501683 M 38.001304 54.501683 L 38.999296 54.501683 M 43.999839 54.501683 L 45.999351 54.501683 M 47.00087 54.501683 L 47.998863 54.501683 M 49.000382 54.501683 L 52.001413 54.501683 M 52.999406 54.501683 L 59.001467 54.501683 M 61.000979 54.501683 L 61.998972 54.501683 M 10.001086 55.499675 L 10.999078 55.499675 M 17.00114 55.499675 L 17.999133 55.499675 M 19.000652 55.499675 L 19.998645 55.499675 M 21.000164 55.499675 L 22.001683 55.499675 M 22.999676 55.499675 L 28.000218 55.499675 M 29.001737 55.499675 L 31.001249 55.499675 M 33.998754 55.499675 L 35.000273 55.499675 M 36.999785 55.499675 L 40.998808 55.499675 M 42.000327 55.499675 L 45.999351 55.499675 M 49.000382 55.499675 L 52.001413 55.499675 M 52.999406 55.499675 L 54.998917 55.499675 M 57.999948 55.499675 L 61.000979 55.499675 M 1.999512 56.501194 L 8.999566 56.501194 M 12.000597 56.501194 L 12.99859 56.501194 M 15.001628 56.501194 L 17.999133 56.501194 M 19.000652 56.501194 L 19.998645 56.501194 M 22.001683 56.501194 L 24.001195 56.501194 M 26.000706 56.501194 L 26.998699 56.501194 M 29.99973 56.501194 L 31.001249 56.501194 M 31.999242 56.501194 L 33.000761 56.501194 M 33.998754 56.501194 L 35.998266 56.501194 M 36.999785 56.501194 L 38.001304 56.501194 M 40.998808 56.501194 L 42.000327 56.501194 M 42.99832 56.501194 L 43.999839 56.501194 M 45.999351 56.501194 L 49.998375 56.501194 M 50.999894 56.501194 L 52.001413 56.501194 M 52.999406 56.501194 L 54.998917 56.501194 M 56.000437 56.501194 L 56.998429 56.501194 M 57.999948 56.501194 L 61.000979 56.501194 M 1.999512 57.499187 L 3.001031 57.499187 M 8.001574 57.499187 L 8.999566 57.499187 M 10.001086 57.499187 L 12.000597 57.499187 M 12.99859 57.499187 L 14.000109 57.499187 M 15.999621 57.499187 L 17.999133 57.499187 M 19.998645 57.499187 L 22.001683 57.499187 M 22.999676 57.499187 L 24.999187 57.499187 M 28.000218 57.499187 L 29.001737 57.499187 M 29.99973 57.499187 L 31.001249 57.499187 M 33.998754 57.499187 L 36.999785 57.499187 M 38.001304 57.499187 L 40.998808 57.499187 M 43.999839 57.499187 L 45.999351 57.499187 M 47.998863 57.499187 L 52.001413 57.499187 M 54.000925 57.499187 L 54.998917 57.499187 M 57.999948 57.499187 L 59.001467 57.499187 M 61.000979 57.499187 L 61.998972 57.499187 M 1.999512 58.500706 L 3.001031 58.500706 M 3.999024 58.500706 L 7.000055 58.500706 M 8.001574 58.500706 L 8.999566 58.500706 M 10.001086 58.500706 L 12.99859 58.500706 M 15.001628 58.500706 L 17.00114 58.500706 M 17.999133 58.500706 L 19.000652 58.500706 M 21.000164 58.500706 L 22.001683 58.500706 M 24.999187 58.500706 L 28.000218 58.500706 M 29.99973 58.500706 L 38.001304 58.500706 M 42.000327 58.500706 L 42.99832 58.500706 M 45.001358 58.500706 L 49.998375 58.500706 M 52.001413 58.500706 L 52.999406 58.500706 M 54.000925 58.500706 L 63.000491 58.500706 M 1.999512 59.498699 L 3.001031 59.498699 M 3.999024 59.498699 L 7.000055 59.498699 M 8.001574 59.498699 L 8.999566 59.498699 M 10.001086 59.498699 L 12.000597 59.498699 M 12.99859 59.498699 L 17.00114 59.498699 M 17.999133 59.498699 L 19.000652 59.498699 M 19.998645 59.498699 L 21.000164 59.498699 M 22.999676 59.498699 L 26.998699 59.498699 M 28.000218 59.498699 L 29.99973 59.498699 M 31.999242 59.498699 L 33.000761 59.498699 M 33.998754 59.498699 L 36.999785 59.498699 M 38.999296 59.498699 L 42.000327 59.498699 M 42.99832 59.498699 L 45.001358 59.498699 M 45.999351 59.498699 L 47.00087 59.498699 M 47.998863 59.498699 L 49.000382 59.498699 M 50.999894 59.498699 L 54.998917 59.498699 M 56.000437 59.498699 L 56.998429 59.498699 M 59.001467 59.498699 L 61.000979 59.498699 M 61.998972 59.498699 L 63.000491 59.498699 M 1.999512 60.500218 L 3.001031 60.500218 M 3.999024 60.500218 L 7.000055 60.500218 M 8.001574 60.500218 L 8.999566 60.500218 M 10.001086 60.500218 L 12.000597 60.500218 M 14.000109 60.500218 L 17.00114 60.500218 M 17.999133 60.500218 L 22.001683 60.500218 M 22.999676 60.500218 L 24.001195 60.500218 M 26.000706 60.500218 L 29.001737 60.500218 M 33.000761 60.500218 L 35.998266 60.500218 M 36.999785 60.500218 L 38.001304 60.500218 M 40.000816 60.500218 L 40.998808 60.500218 M 42.000327 60.500218 L 43.999839 60.500218 M 47.00087 60.500218 L 50.999894 60.500218 M 54.000925 60.500218 L 54.998917 60.500218 M 61.998972 60.500218 L 63.000491 60.500218 M 1.999512 61.501737 L 3.001031 61.501737 M 8.001574 61.501737 L 8.999566 61.501737 M 12.000597 61.501737 L 12.99859 61.501737 M 15.999621 61.501737 L 17.00114 61.501737 M 17.999133 61.501737 L 19.000652 61.501737 M 19.998645 61.501737 L 24.001195 61.501737 M 24.999187 61.501737 L 26.998699 61.501737 M 28.000218 61.501737 L 29.001737 61.501737 M 31.999242 61.501737 L 33.000761 61.501737 M 33.998754 61.501737 L 35.998266 61.501737 M 40.998808 61.501737 L 45.001358 61.501737 M 47.00087 61.501737 L 49.000382 61.501737 M 52.999406 61.501737 L 54.000925 61.501737 M 54.998917 61.501737 L 56.998429 61.501737 M 57.999948 61.501737 L 59.99946 61.501737 M 61.998972 61.501737 L 63.000491 61.501737 M 1.999512 62.49973 L 8.999566 62.49973 M 10.001086 62.49973 L 12.000597 62.49973 M 14.000109 62.49973 L 15.001628 62.49973 M 17.999133 62.49973 L 22.999676 62.49973 M 24.001195 62.49973 L 24.999187 62.49973 M 26.000706 62.49973 L 31.001249 62.49973 M 33.000761 62.49973 L 35.998266 62.49973 M 40.000816 62.49973 L 40.998808 62.49973 M 45.001358 62.49973 L 50.999894 62.49973 M 52.001413 62.49973 L 54.000925 62.49973 M 56.998429 62.49973 L 59.001467 62.49973 M 59.99946 62.49973 L 63.000491 62.49973 " stroke="#e2e2ca" stroke-width="1" stroke-opacity="1" stroke-miterlimit="4"/></svg>